REM DIRINDEX 1\2\3,1\2\4,1\2\5,1\2\6
REM DIRNAME cjc157,folder01,folder02,folder03,folder04,folder05
TITLE ""
FILE "015 015.mp3" MP3
  TRACK 01 AUDIO
    TITLE "0:"
    INDEX 01 00:00:00
  TRACK 02 AUDIO
    TITLE "3:cjc157_0520"
    INDEX 01 00:00:11
  TRACK 03 AUDIO
    TITLE "0:"
    INDEX 01 00:01:52
  TRACK 04 AUDIO
    TITLE "4:cjc157_0521"
    INDEX 01 00:02:22
  TRACK 05 AUDIO
    TITLE "0:"
    INDEX 01 00:03:35
  TRACK 06 AUDIO
    TITLE "5:cjc157_0522"
    INDEX 01 00:04:01
  TRACK 07 AUDIO
    TITLE "0:"
    INDEX 01 00:06:39
  TRACK 08 AUDIO
    TITLE "3:cjc157_0523"
    INDEX 01 00:07:07
  TRACK 09 AUDIO
    TITLE "0:"
    INDEX 01 00:08:36
  TRACK 10 AUDIO
    TITLE "4:cjc157_0524"
    INDEX 01 00:09:06
  TRACK 11 AUDIO
    TITLE "0:"
    INDEX 01 00:10:18
  TRACK 12 AUDIO
    TITLE "5:cjc157_0525"
    INDEX 01 00:10:65
  TRACK 13 AUDIO
    TITLE "0:"
    INDEX 01 00:12:52
  TRACK 14 AUDIO
    TITLE "5:cjc157_0526"
    INDEX 01 00:13:20
  TRACK 15 AUDIO
    TITLE "0:"
    INDEX 01 00:15:30
  TRACK 16 AUDIO
    TITLE "5:cjc157_0527"
    INDEX 01 00:16:08
  TRACK 17 AUDIO
    TITLE "0:"
    INDEX 01 00:17:35
  TRACK 18 AUDIO
    TITLE "3:cjc157_0528"
    INDEX 01 00:18:05
  TRACK 19 AUDIO
    TITLE "0:"
    INDEX 01 00:19:30
  TRACK 20 AUDIO
    TITLE "4:cjc157_0529"
    INDEX 01 00:20:02
  TRACK 21 AUDIO
    TITLE "0:"
    INDEX 01 00:21:21
  TRACK 22 AUDIO
    TITLE "5:cjc157_0530"
    INDEX 01 00:21:68
  TRACK 23 AUDIO
    TITLE "0:"
    INDEX 01 00:24:02
  TRACK 24 AUDIO
    TITLE "5:cjc157_0531"
    INDEX 01 00:24:51
  TRACK 25 AUDIO
    TITLE "0:"
    INDEX 01 00:27:00
  TRACK 26 AUDIO
    TITLE "5:cjc157_0532"
    INDEX 01 00:27:43
  TRACK 27 AUDIO
    TITLE "0:"
    INDEX 01 00:29:11
  TRACK 28 AUDIO
    TITLE "3:cjc157_0533"
    INDEX 01 00:29:58
  TRACK 29 AUDIO
    TITLE "0:"
    INDEX 01 00:31:29
  TRACK 30 AUDIO
    TITLE "4:cjc157_0534"
    INDEX 01 00:32:03
  TRACK 31 AUDIO
    TITLE "0:"
    INDEX 01 00:33:13
  TRACK 32 AUDIO
    TITLE "5:cjc157_0535"
    INDEX 01 00:33:56
  TRACK 33 AUDIO
    TITLE "0:"
    INDEX 01 00:36:31
  TRACK 34 AUDIO
    TITLE "5:cjc157_0536"
    INDEX 01 00:37:03
  TRACK 35 AUDIO
    TITLE "0:"
    INDEX 01 00:39:31
  TRACK 36 AUDIO
    TITLE "5:cjc157_0537"
    INDEX 01 00:40:03
  TRACK 37 AUDIO
    TITLE "0:"
    INDEX 01 00:41:63
  TRACK 38 AUDIO
    TITLE "3:cjc157_0538"
    INDEX 01 00:42:33
  TRACK 39 AUDIO
    TITLE "0:"
    INDEX 01 00:43:52
  TRACK 40 AUDIO
    TITLE "4:cjc157_0539"
    INDEX 01 00:44:20
  TRACK 41 AUDIO
    TITLE "0:"
    INDEX 01 00:45:37
  TRACK 42 AUDIO
    TITLE "5:cjc157_0540"
    INDEX 01 00:46:07
  TRACK 43 AUDIO
    TITLE "0:"
    INDEX 01 00:49:43
  TRACK 44 AUDIO
    TITLE "3:cjc157_0541"
    INDEX 01 00:50:11
  TRACK 45 AUDIO
    TITLE "0:"
    INDEX 01 00:51:40
  TRACK 46 AUDIO
    TITLE "4:cjc157_0542"
    INDEX 01 00:52:10
  TRACK 47 AUDIO
    TITLE "0:"
    INDEX 01 00:53:23
  TRACK 48 AUDIO
    TITLE "5:cjc157_0543"
    INDEX 01 00:53:68
  TRACK 49 AUDIO
    TITLE "0:"
    INDEX 01 00:56:12
  TRACK 50 AUDIO
    TITLE "3:cjc157_0544"
    INDEX 01 00:56:57
  TRACK 51 AUDIO
    TITLE "0:"
    INDEX 01 00:58:11
  TRACK 52 AUDIO
    TITLE "4:cjc157_0545"
    INDEX 01 00:58:56
  TRACK 53 AUDIO
    TITLE "0:"
    INDEX 01 00:59:65
  TRACK 54 AUDIO
    TITLE "5:cjc157_0546"
    INDEX 01 01:00:33
  TRACK 55 AUDIO
    TITLE "0:"
    INDEX 01 01:03:14
  TRACK 56 AUDIO
    TITLE "3:cjc157_0547"
    INDEX 01 01:03:57
  TRACK 57 AUDIO
    TITLE "0:"
    INDEX 01 01:04:70
  TRACK 58 AUDIO
    TITLE "4:cjc157_0548"
    INDEX 01 01:05:38
  TRACK 59 AUDIO
    TITLE "0:"
    INDEX 01 01:08:46
  TRACK 60 AUDIO
    TITLE "5:cjc157_0549"
    INDEX 01 01:09:14
  TRACK 61 AUDIO
    TITLE "0:"
    INDEX 01 01:11:07
  TRACK 62 AUDIO
    TITLE "5:cjc157_0550"
    INDEX 01 01:11:52
  TRACK 63 AUDIO
    TITLE "0:"
    INDEX 01 01:15:19
  TRACK 64 AUDIO
    TITLE "5:cjc157_0551"
    INDEX 01 01:15:62
  TRACK 65 AUDIO
    TITLE "0:"
    INDEX 01 01:18:64
  TRACK 66 AUDIO
    TITLE "3:cjc157_0552"
    INDEX 01 01:19:36
  TRACK 67 AUDIO
    TITLE "0:"
    INDEX 01 01:21:08
  TRACK 68 AUDIO
    TITLE "4:cjc157_0553"
    INDEX 01 01:21:53
  TRACK 69 AUDIO
    TITLE "0:"
    INDEX 01 01:22:68
  TRACK 70 AUDIO
    TITLE "5:cjc157_0554"
    INDEX 01 01:23:40
  TRACK 71 AUDIO
    TITLE "0:"
    INDEX 01 01:25:15
  TRACK 72 AUDIO
    TITLE "5:cjc157_0555"
    INDEX 01 01:25:62
  TRACK 73 AUDIO
    TITLE "0:"
    INDEX 01 01:27:67
  TRACK 74 AUDIO
    TITLE "3:cjc157_0556"
    INDEX 01 01:28:41
  TRACK 75 AUDIO
    TITLE "0:"
    INDEX 01 01:29:50
  TRACK 76 AUDIO
    TITLE "4:cjc157_0557"
    INDEX 01 01:30:20
  TRACK 77 AUDIO
    TITLE "0:"
    INDEX 01 01:31:34
  TRACK 78 AUDIO
    TITLE "5:cjc157_0558"
    INDEX 01 01:32:08
  TRACK 79 AUDIO
    TITLE "0:"
    INDEX 01 01:34:55
  TRACK 80 AUDIO
    TITLE "5:cjc157_0559"
    INDEX 01 01:35:26
  TRACK 81 AUDIO
    TITLE "0:"
    INDEX 01 01:37:36
  TRACK 82 AUDIO
    TITLE "5:cjc157_0560"
    INDEX 01 01:38:02
  TRACK 83 AUDIO
    TITLE "0:"
    INDEX 01 01:39:63
